/* XPM */
static char *bdfb49ebb5df4edfe66c0ff02bbd1348m1a4aCPsStR375VU[] = {
/* columns rows colors chars-per-pixel */
"64 64 241 2 ",
"   c #5A352D",
".  c #613B32",
"X  c #5C413D",
"o  c #68453C",
"O  c #72453B",
"+  c #584D4C",
"@  c #664B44",
"#  c #734D44",
"$  c #7B4D46",
"%  c #6A5145",
"&  c #6B524C",
"*  c #75544C",
"=  c #7A544A",
"-  c #7C554D",
";  c #76584E",
":  c #6E5954",
">  c #6B5B58",
",  c #735753",
"<  c #7B5651",
"1  c #745B54",
"2  c #7C5C54",
"3  c #735E5B",
"4  c #7C5E5A",
"5  c #6D615E",
"6  c #796157",
"7  c #74625D",
"8  c #7C625C",
"9  c #725D61",
"0  c #6B6361",
"q  c #756463",
"w  c #7C6662",
"e  c #746967",
"r  c #7E6A64",
"t  c #746A6A",
"y  c #7C6C6B",
"u  c #7C716D",
"i  c #7A6F71",
"p  c #6C7078",
"a  c #7D7473",
"s  c #78767A",
"d  c #874D47",
"f  c #83554C",
"g  c #87584B",
"h  c #945E4E",
"j  c #845D54",
"k  c #8B5C53",
"l  c #885B56",
"z  c #835E59",
"x  c #965D53",
"c  c #B35A57",
"v  c #846155",
"b  c #8B6256",
"n  c #84635C",
"m  c #8A635B",
"M  c #84685F",
"N  c #8A695D",
"B  c #946253",
"V  c #92645C",
"C  c #9A645C",
"Z  c #926A5E",
"A  c #9A6A5D",
"S  c #A2685C",
"D  c #AC715C",
"F  c #8A5D60",
"G  c #836662",
"H  c #8B6562",
"J  c #846A64",
"K  c #8B6B64",
"L  c #836E6A",
"P  c #8C6D6A",
"I  c #936461",
"U  c #9B6562",
"Y  c #936B63",
"T  c #9B6D65",
"R  c #936D69",
"E  c #9D6C6A",
"W  c #84726C",
"Q  c #897369",
"!  c #8C726C",
"~  c #957066",
"^  c #9B7166",
"/  c #94736C",
"(  c #9B736C",
")  c #96796E",
"_  c #9B786E",
"`  c #846F71",
"'  c #857573",
"]  c #8C7572",
"[  c #847976",
"{  c #8D7A75",
"}  c #83777A",
"|  c #8A727D",
" . c #847B7B",
".. c #8C7C7B",
"X. c #937572",
"o. c #9C7572",
"O. c #937A75",
"+. c #9C7B74",
"@. c #927779",
"#. c #937D7B",
"$. c #9B7D7A",
"%. c #A56865",
"&. c #AA6B64",
"*. c #A26D6B",
"=. c #B66D6B",
"-. c #A37164",
";. c #A97265",
":. c #A3736A",
">. c #AB736C",
",. c #A2796E",
"<. c #AB7A6D",
"1. c #B37A6C",
"2. c #B87A6A",
"3. c #A37473",
"4. c #AB7572",
"5. c #A37C74",
"6. c #AC7C73",
"7. c #A37E79",
"8. c #AC7D7B",
"9. c #B37C74",
"0. c #B97973",
"q. c #B27F7B",
"w. c #BB7D7B",
"e. c #C37467",
"r. c #C47C71",
"t. c #8C827D",
"y. c #94827D",
"u. c #9B8278",
"i. c #9C827C",
"p. c #BE836E",
"a. c #A38077",
"s. c #AC8276",
"d. c #A4837C",
"f. c #AB847D",
"g. c #A5887E",
"h. c #AF897E",
"j. c #B38275",
"k. c #BB8374",
"l. c #B3847B",
"z. c #BA867B",
"x. c #B7897B",
"c. c #BA8A7D",
"v. c #C18168",
"b. c #C68B7B",
"n. c #767A81",
"m. c #847C81",
"M. c #8B7E81",
"N. c #927E81",
"B. c #9C7E81",
"V. c #AA7E82",
"C. c #858182",
"Z. c #8C8383",
"A. c #8A8689",
"S. c #8D858A",
"D. c #8D8A8B",
"F. c #948482",
"G. c #9C8582",
"H. c #958985",
"J. c #9C8985",
"K. c #948789",
"L. c #9D8788",
"P. c #948B8B",
"I. c #9C8C8B",
"U. c #96918E",
"Y. c #9D918E",
"T. c #878B90",
"R. c #8E8C94",
"E. c #938D91",
"W. c #9B8E91",
"Q. c #959193",
"!. c #9C9292",
"~. c #9C9599",
"^. c #9E999A",
"/. c #A28581",
"(. c #AB8682",
"). c #A48A84",
"_. c #AB8B84",
"`. c #A48D8B",
"'. c #AB8D8A",
"]. c #B88583",
"[. c #B38C84",
"{. c #BB8C83",
"}. c #B18D8B",
"|. c #BB8C8B",
" X c #A49087",
".X c #AC9285",
"XX c #A4928D",
"oX c #AB928C",
"OX c #B3928C",
"+X c #B99388",
"@X c #BB938C",
"#X c #A58E92",
"$X c #B48E91",
"%X c #A39493",
"&X c #AB9593",
"*X c #A59994",
"=X c #AC9A94",
"-X c #A19799",
";X c #A49B9B",
":X c #AB9C9B",
">X c #B39592",
",X c #BC9591",
"<X c #B39A95",
"1X c #BB9B94",
"2X c #B39D9A",
"3X c #BB9C9A",
"4X c #A5A29E",
"5X c #ACA19B",
"6X c #B4A29D",
"7X c #BCA29C",
"8X c #A99EA1",
"9X c #A4A3A4",
"0X c #ACA3A3",
"qX c #ACA7AA",
"wX c #B4A5A2",
"eX c #BBA4A2",
"rX c #B4A9A5",
"tX c #BCAAA7",
"yX c #B4ABAA",
"uX c #BDB0AB",
"iX c #C48B85",
"pX c #C3948B",
"aX c #C69589",
"sX c #C49A8E",
"dX c #D19A8F",
"fX c #C69894",
"gX c #C29D95",
"hX c #CAA08F",
"jX c #C3A39D",
"kX c #CBA39B",
"lX c #CCA79A",
"zX c #D1A69C",
"xX c #C4A7A4",
"cX c #C3AAA3",
"vX c #CCABA4",
"bX c #C2ADAA",
"nX c #D2AAA5",
"mX c #C4B1AC",
"MX c #CEB2AC",
"NX c #DBB5AA",
"BX c #C9B6B3",
/* pixels */
"r ; M F.~.!.9XqX0X#.d.).'.7X`.K o.>X<X'.OX7XcX/./ G , n y Z.Z.{ @ X y A.:XoX9X9XQ.%XjXcX).+.+.# * K.!.L j j #.I.y.{ { Q ] y.F...",
"y E.;X~.R.R.S.P.S.....)._.7Xy.2 H v 2 T 6.l.f.y e : M ] { &XeXyXt.r G.&X_._.oXwXL.f.j.x.4.5._.#.Q (.c.G.Z.#.w.iX].3X.X&XZ...a q ",
"a a $.$.] P #.).G.#.....! W 7 @ r / * = J ..F.i s F.O.] $.f.f.).i.5._.{.l.=X+.r > ( ;.:.3._.3X`.] -.;.3...$.e.0.4.4.9.'.H. .y e ",
"' #.[.OX/.! ! #.#.G.oXyX:X{ M.I.;XwXF.2 w ' F.:XwXeX:X-X&X'././.K ! /.s.1.oXu 0 + 4 3.6.5.5.5.)...6.6.4.w K 0.0.9.6.l.d.U.s [ C.",
"q ! ^ +.P.P.:X&X{ g.1XOX_.d.L.&X>X'.!.!.XX'.,Xc.b.k.c.@XoXa.h.l.OX%X`.Z f L C.).F.Z.X.o.^ ^ ( #. .K Y H e r %.0.6.o.8.)...a a e ",
"*X).5.+.O.I.oXJ.r O.a.d.+.+.n K 7.OXL.] / 5.,.-.D 2.D :.).).+.( Y / ! Q P.-Xj.e.c.,X_./.i.#.`.-X%X&XXXH. .6 $ $ G y.&XtX2XL.[ ' ",
"pXx.6.[.oX&X&X%X!.%XG.#.L.:XF.y.O._.L.%XoXi.&X<X] H ^ $.<XeX:X:Xy.G.L.XX6XMXsXp.pXnXpX4./ 8 2 R v d.eXbX%X#.y.y.}.nXiXw.&.V ] ,X",
":.-.b I 7.a.`.} a -X%X~.2X/./ +.#.F.F._.{.>X1XoXP.F.&XjXmXcXjXMXbXgXlXzXzXiXl.<.^ >.x d 2 7 % # j j +.+.4 4 ] O.*.%.d d k v % z ",
"O.`.J.1 8 L K 4 r K +.$.'._.5.o.$.>X=Xa.o.a.(./.O.J &XjXBXMXvX,X@X=.S S j.f.f.+.u.) r L !.qX-XH.I.y.Q ! { F.!.t.q ] i.y.{ !.-XF.",
"{ /.(. .] #.W 2 X.! O.J.L.7.j j o.1X:X&X)./ X.O.{ / _.[.f.,Xh.$.X.V v M +._.{.[.gXjXA.' #.$...s '.h.h.[.2X:X6X! w J d.`.' E 8.B.",
"o.R 3.] P $.Y.q +.$.oX_.+.K 8 ! /.rXrX6X6X&X=XoXoX6X3X).X.L.;X!.Y.:X:X`.K 9.z.j.c.+X/.#.a.X.e > R :.~ T T 7._.{  .q 2 K w &.U E ",
"E ] X.J H U J 3 z /.3X7Xg.oXF...m +.L.g.+.+.).oX Xd.a.d.K r s F.J.&XjX>XM b A Z m 8.+.M n J ' Z.y.Y T T U X.8 G [ ' L ! ] :.R Y ",
"&X:XqX0X`.X. .E.W * < - = X.J.' K b m b k B k f v j O   o 6 L J./ i.8./.Q.I.I.F.[ y F.4XU.-X8X:XoX*X:XXXG.XXY..Xf.] $.G.-X%X-X%X",
"L.&XE...).i.F.P. .' { J ] /.jXvXoX).a.`.!.I.F.! '.<X .[ *X5X6X2Xi.#.] G.F.' #.{ ..` J.I.y.I.'.i.a.~ ( / ~ / 6.k.k P _ n 4 w r Z.",
"X.] A.L _ $.O.`.C.S.E.yXMX@X{.kX_./._.g.] #.F.} ,XdX%X0XrX:X=XOXOX_.d.oX_.sXsX2 y ] L / H { i.G ..! O.) / Q n o X { O.n < J K ! ",
"M L Z.] J B.G.#.a ' ] xXzXzX[.5.[.fX+X1.P I...] k.w.l.=X5XoXd.).=X).=X Xa.K V q Z.P.F.J ; 2 M ] F.O.`.jXvXjXI.C.:X&X{ O.! H 4 M ",
"y.&XtXuXy.: ] G.!.:XL.5.<.,.O.5.,.A B O 8 L.Q.] k V m O.y.Q # M Q n ! / / y.`._.(.`.I.Y.[ Z.P.I.>XX.O.fXaXpX$..XNXzX] ..-Xt.q t.",
"y Y c.>X_.F.|.pX2X<X3X`.y.{ <X<XoXF.5 q y.] ] { ] r [ ' ] #.y.O.F.J.{ I.#.<X).( o.B.G.f.K.a e | V.J L [.[.4.8 - B / O./.7.'.Z.a ",
"> 2 h f.G.! 3.].6.<.l.[.).] @XkXkXOXP.<XoXy.G.G.J.).OXgX[.[.h.d.)...K.`.] (.(.+./ ! / o.L ..t 9 N.:XF.L - H ).`.).y.y.O.O.+.{ ..",
"i W b b 4 3 R 6.>.;.9.0.^ r ,XaXz.^ Y 3.d.$.).i.+.5.k.k.-.^ A A v & w / 7 _._.5.+./ v m r ' a L / j.<.P.P.l.w.w.[.2X0X=X+.( J.] ",
"!.9X;Xt.' P.-Xi.5.^ f H ..[ P Y Y { y n P { X.O.$.i.! * # 4 O./ G { y.G.F./ T ( oX%XXXI.*X6X).a.^ >.>.5.` 9.aXx.:.oX*Xg.O.i.%X*X",
".X2XrXW.fXfX}.'.[.oXr P >X[.Z.W / ].pX@X:X*XI.F.Z.' y } ~.%X7.[..X_._.'.'._._.@X7XOXjX3XpX[.a.i.o.6.<.R q 4.{.{.6.oX5X_.+.d.'._.",
" Xu.' 9 iXb.q.q.q./.C.K ;.-.7.A.8.e.1.4.oXrX0XK b Y R y  .$./ H / H n M H Y K Y ,.>.<.6.{.[./ L K K H y e H *.9.+.[.{ _.<XOX9.oX",
"*X7 > + o.iXz.l.h._.P.{ 6.<.6.e *.r.9.6./.4X^.L g ^ ).{ #.OX1X`.u.X._.a.K ^ /.,X( K ~ m ^ / W -X;X:X:XI.' 4 j m H H q (.B.d.f.&X",
"' C.H. .{ 4.9.q.6.3...' T T H q K =.w.4.$.;XA.t 4.4.] r O.5.f.f.5.+.+.Y b 5.i.f.O.Q.Q.P.t.H.;X'.d.'.xX7X#.#.y.$.y.#.F.&XXXa.^ 4.",
"Y.l.z.oX&Xg.i.$.$.L.W.!.G.y.[ u , d g K ] *X;XH.y.r a P.+.~ / P G m K / ! ! G.oX'.oXd...#.O.! +.o.H K n ; w { tXBXmXBXBXBX).O.J.",
"a.Y Y K ^ 2.b.j.r O.X.R =XbXwXJ.{ ! ! '.xX>Xd.1XOX/.1XgXx.l._._.).tXbXoX&Xu.m 6.z.b.~ y ..L 4 / O...' F.!.~.^.6X.X}.@X[.3XbX/.l.",
"( z f h j ! Y < % o # n 2XMXOXJ L #.O.OXpX^ O.a.>.&.<.<.-.5.).g.)..XoXoXoXoXi.] 2 z ] K.`.I./ ] y.I.I.R.R.M.| / m $ V T V R M ;.",
"b v g h N 2 W P.Q.y.] ' OXaXj.M 8 ! X.j.;.< I.P.#.V T *.5.=X5X) O.XX#.).i.i.+.#.Z.%X1X[.$.! J 7 ] X.X.{ ] K R +./ W O.{ y.] W R ",
"XXW.!.-X~.C.] M.K.:X3X2XG./ Y )././.F.,   1 y.F.{ 8 < 8 w J 8 , 8 M J M # # J F.oX@XnXjX:X*X:X:XJ.! Q G.J.`.`.'.F.I.y.`.#.y %XF.",
"m 8 r m W s #.+./.'.@X|.'.%X..>XkXjX2XC.Y.6Xy.O.i.I.H.I.XX`.oX&XG.I.%XP.F.8 $.(.k.9.kXcX1X1XvXcX7XmXY.$.g.(.jXOXK J ] $.#.4 J G ",
"P ) Q Q y  .$.g.i.$./ |.l.f.L '.fXaX{.O.zXNX.XL #.$.+.c.dXz.6.<.6.5.J y S.O.l.x.5.] =X2X>Xg.5.( 3.O.r K ~ / 5.Y j m ( J M j o : ",
"3X1X+X[.rXuX2X_._.OXa.6.q.+.q d.[.j.( , k A / i.d.( s.:.B d k k g # 1 8 L /.l.(.I.3XjXMXvX.X/.&X:X4XqX4X;X%XF.W 1 X.O.L.I.! ! y.",
"s.1.v.b.k.j./.$.s.aX[.; , I.*X] n - $.`.).G.F.#.y.F.Z. .u L X.] J ! oX).d.`.).f.{.b.z.aXc.f.).rXrXOX2XwX<X'.`.Q.7 +.d.'.I.P.)._.",
"i.a.Z B B / %X:X).(.f...W 5.9.i.D.J.>.1.w.>XwX0X' ' y 7 e A.^.W.L.*X<X/.+.`.:X/ x A Y ( [.( M $.).C E 5.x x A J 3 z 6.d.%X#.X./ ",
"eX7Xy.y._.OX7XcX7XeX2X0X'.:.;.6.] P :.5.6.7.:XY.{ H.W K ! { i.g.d.).).).O.] A.A.J.J.O.] ! ..F.Q / n o . H 7.O.[ E.W < O.I.<XkX<X",
"jXMXG.{ &XjX7XOX.X_.1XkX@X3.6.,.q P 6.6.6.a.4X9X!.y.w e { L.[._.( V = O O 1 t s m.I.I.Z.Z.XXU.F.-X%XS.r ! ).G.F.P. .' =X%X5.f._.",
"@X1X2 4 _.,X).oX).g.[.x.T K J J y w T z T / I.9XC.' t 0 t ! Y R Y n % , y.L.XX`.g.c.! ..{ P ! ! J.u.{ D.L +.$.O.`.t.Z.E.I.).5./ ",
"`.L.I.=X>Xd./ _.'.G.i.i.O.{ !.-XF.G - - P i.oXeX2X).Z.J.7X[.h._.d.#.-X%XL.XXoX+.T T t ....] J 2 n J L Z.] J B.G.#.a ' ] 1XuX2X%X",
"7X<Xg.oXoX_.u.y.R.T.D.8XxX1XjXcX`.{ F.G.3.o.U x x f q [.iX9.;.h.gX[.I.D.%XoXOX..L ).oX'.$X%Xt.q t.y.#XtXuXy.: ! i.!.:XL.a.g.<X7X",
"5.a.,.Y b f # , e p s ).pX_.R K ; 1 ' { I V f k Y ! 3 n T ( m j Y m y n.I.f.6.O.!.1XhXsXkX|.&XZ.a y Y c.<X_.F.|.gX1X<X3X`.G.Y Y ",
"K v K ! ; o J y.y.Z.y L / O.#.i.I.Q.*Xt.q { XXI...#X:XP.N.`.`.w W ]  .t y Y V : (.fXsX[.zX+X( ' ..0 , h f.G.! 3.pXOXg._.8.(.+./ ",
"P. .3XkXE.8XyXrX7X7XOX/.O.).g.c.gX=Xi.r W J ( /.' %.4.$.] o.8...] G.6XOXG.O.r 5 ^ ;.:.3.l.^ Y q ' s L b b 4 3 R 8.f.5.^ q.7.F.F.",
"..' iXiX}.:X:XXX)._.OX.XoXoXf.&.c Y X.O.' 7 ; 4 4 %.I $._.X.f.5.m G.oXOX.X_.XX^.! 8 $._.G.O.{ !.*X!.9X;Xt.F.*XI.$.3.V $ H F.y.y.",
"P.O.;.>.,.oX5XoXY i.XXO.XXi.a.:.3.i.L J F.t.{ y.G.$.#.5.0.6.oX<X_.+.d.=X).XX&X:X0XE.3X>X<XeX3XpX[..X:XeXW.qX-XE.E.E.P.L P >X[.G.",
"F.W < < 8 8 r 6 , M M J 4 # < +.i.XXH.' / P ( ! F.W.Z.4 f n J ! G & 2 M 4 V ,.`.#XF.(.] g.2XOX9..X.Xu.] 3 ] /.@.#.X...m.P ;.-.o.",
"O.G.I.H.`.XX).&XoXG.%XY.P.F.! K Z Z v 3 r R R M X.] #.F...F.F.y.L.XXF.I.%Xy.Z +.&XO.H e (.B.g.s.+XXX7 > + P @X_.$._ / Z.O.6.<.5.",
"' $.$.5.iXdXj.6.<.3.+.w ' P.i.oXJ.y.XX%Xy.! X.'.oX' #.y.i.{.fX{.f.j.s.d.] ' P.y.'.F.O...'./.d.^ :.[ C.F. .O.7.d.7.5._ #.' T T / ",
").+.( ,.-.h d l Y b , 3 L { $.O.G.#.] G.oXF.$.a.+.#./.o.5.<.;.B V A B - & , y /.l.fX&X`.OX1X%X{ F.%Xj.2.[.XXi.i.+.O.L.!.!.L.y.] ",
"{ J.XXF.Z.w Q y.Q.P.W.-X8X%X{ #.$.L.L.XX*X%X%X{ ..X.! O.G...8 ; M F.I.P.Q.X.! /.'.7.*.7.Y :.V.#.#.5.k.z.j.f._.+Xs.J O.X./ <X;XI.",
"] M.P.K. .a E.~.L.#.K H ' M.N./.:.T / 5.f.l.q.&X-X%XI.I.P.} i Q.;X).'.)./.G.#.'.gXf.V F 4 R U E o.( E K r v $.Y < % o = j / 2XXX",
"X.' J `  .' ' /.g./.+./ ` ] @.^ :.6.{ O.;.1.9.7.5X4XW.#./ H L ' $.$.X.o.o.( G B.@Xf.m < < z l R Y ( R ' D.] n L P.;XH.] #.! ).).",
"+.L P ! ' L i.[.OX_.a.+.X.P X.6.6.4.w P <.9.9.a.4X4Xi.O.i.+.L #.}.OXg.5.+./ 7 O.&X`.! Q 6 2 ] y.y.L.'.`.=X`.i.' L.%X-XA.>Xl.g.).",
"J.{ ] J w y / Y / ( K Z ~ R ! P Y H e r %.>.4.o.Y.9XZ.#.] J e ! / o.5.( +.G.=X#.#.F.3X3XP.;XyXrX6X6XOX_.5.f.5.$.#.' y 3 >.l.5.H.",
"MX7XL.t.XX7Xh.h.).i.O.i.).=X%X=XXXH. .6 $ $ K #.XX6X%XF.[ { *X).5.+.O.P y.`.1X=Xt.' iXb.}.:X:XXX).).).oX XoX).=X{ 1 t  ./ C 5.eX",
"S d - L +X{.4.:.[.gX[.G.4 P v d.eXbX%X#.y.#.o.'.7.o./ R O.@XsXx.6.[.1X_.%XP.P.A.Z.O.;.>.,.oX5XoXY i.XXO.XXi.+./.*X' `.:X%Xg._.>.",
"  @ G 1 m T ^ j z Y n r % # v z +.+.4 4 ] ] I V V V R H & v :.-.b I 5.~ G 3 3 &  .W < < 8 M G 4 ; 8 M J 4 # - J / K R K m x v - ",
"P.0XyX;XZ.N.&Xy.w W ..!.^.H.I.y.Q ! { F.Y.t.r X.G.y...W.-XF.O.`.J.1 w L I.;X!.Y.#.$.I.H.P.I.L.%X%XI.I.Y.P.F.X./.'.Y.I.I. .`.jX!.",
":X:X*XoXO.#._./.#.] ] ] .. .G.X.O.).!.-XL.J w J 7.`.' E 8.$.{ /.(...] B.}./.G M.' / G.G.L...' P.:X3X'.d.L.!.i.l.s.X.{ F.a _.dX+X",
"oX5X=Xd.g.=X).oX_.+.P P e 0 Y T R X.@.X./ ]  .q 2 K w &.C E o.R 3.] P ( K M ] P.F.L G @.#.'  .W 1X@X)._.g.1XpXiXk.v I.F.{ 4.9.q.",
"J ! G % 2 M n M - - G 6 L P.y.+.( R E / 2 8 ..' L ! ] :.Y Y E ] / J H P y.P.L.xXBX=Xy ] _.oX2X=Xi.Z Z $.7.5.m f . & G.P...j f n ",
"y.y.L.XXF.I.%XH.{ ! 1XI.F.oX=X*X2X%XG.*XI...i.{ $.G.-X%X-XXX&X:XqX0XI...a e n ;.[._.#.(.iXiX|.,X&X`.{ <XjX7X%Xs [ XXO.] #.F...F.",
"sX{.f.s.s.d.] ..Q.G.:.! r R Y ~ _ _ / _ M 3 J / ^ n 4 w w Z.I.&X-X2X`.q ..u 3 k :./.! R ].fX[.[.7.f.L (.fXsX@Xy.vXNX.X' #.y.i.x.",
"1.S T T B f @ : r ).5.:X6Xu.J Q / / Y M X...L ! / H ; w 8 y u `.:XrXY.3 ' a  .K b ; 7 G E {.pXpXpX7.3 '.pXj.:.2 ;.c.+.G.).5.f.1."
};
