/* XPM */
static char *c0ffe499b42745dffba8df573b1458b3EdzCquBYV13IXVW8[] = {
/* columns rows colors chars-per-pixel */
"64 64 41 1 ",
"  c #FFB81C",
". c #FDB71C",
"X c #899A31",
"o c #057848",
"O c #007749",
"+ c #889931",
"@ c #F6B61E",
"# c #799634",
"$ c #047848",
"% c #789534",
"& c #F5B51E",
"* c #F7B61D",
"= c #7A9633",
"- c #FCB61C",
"; c #FFB91C",
": c #FDB61C",
"> c #87610F",
", c #F5B11B",
"< c #88620F",
"1 c #050401",
"2 c #77560D",
"3 c #F7B21B",
"4 c #78570D",
"5 c black",
"6 c #040300",
"7 c #79580D",
"8 c #050300",
"9 c #050301",
"0 c #7A9634",
"q c #037848",
"w c #789634",
"e c #7C9733",
"r c #7B9633",
"t c #F7B61E",
"y c #FAB71D",
"u c #030200",
"i c #7B590D",
"p c #FAB51B",
"a c #FBB51C",
"s c #7C590E",
"d c white",
/* pixels */
"     .XoOOOOOOOOOOOOOOOOOOOOOOOOOOOOOOOOOOOOOOOOOOOOOOOOo+.     ",
"      @#oOOOOOOOOOOOOOOOOOOOOOOOOOOOOOOOOOOOOOOOOOOOOOO$%&      ",
"       *=oOOOOOOOOOOOOOOOOOOOOOOOOOOOOOOOOOOOOOOOOOOOO$#*       ",
"        *=oOOOOOOOOOOOOOOOOOOOOOOOOOOOOOOOOOOOOOOOOOO$#*        ",
"         *=oOOOOOOOOOOOOOOOOOOOOOOOOOOOOOOOOOOOOOOOO$#*         ",
"-;        *=oOOOOOOOOOOOOOOOOOOOOOOOOOOOOOOOOOOOOOO$#*        ;:",
">,;        *=oOOOOOOOOOOOOOOOOOOOOOOOOOOOOOOOOOOOO$#*        ;,<",
"123;        *=oOOOOOOOOOOOOOOOOOOOOOOOOOOOOOOOOOO$#*        ;341",
"5643;        *=oOOOOOOOOOOOOOOOOOOOOOOOOOOOOOOOO$#*        ;3785",
"55643;        *=oOOOOOOOOOOOOOOOOOOOOOOOOOOOOOO$#*        ;37955",
"555643;        *=oOOOOOOOOOOOOOOOOOOOOOOOOOOOO$#*        ;379555",
"5555643;        *=oOOOOOOOOOOOOOOOOOOOOOOOOOO$#*        ;3795555",
"55555643;        *=oOOOOOOOOOOOOOOOOOOOOOOOO$#*        ;37955555",
"555555643;        *=oOOOOOOOOOOOOOOOOOOOOOO$#*        ;379555555",
"5555555643;        *=oOOOOOOOOOOOOOOOOOOOO$#*        ;3795555555",
"55555555643;        *=oOOOOOOOOOOOOOOOOOO$#*        ;37955555555",
"555555555643;        *=oOOOOOOOOOOOOOOOO$#*        ;379555555555",
"5555555555643;        *=oOOOOOOOOOOOOOO$#*        ;3795555555555",
"55555555555643;        *=oOOOOOOOOOOOO$#*        ;37955555555555",
"555555555555643;        *=oOOOOOOOOOO$#*        ;379555555555555",
"5555555555555643;        *=oOOOOOOOO$#*        ;3795555555555555",
"55555555555555643;        *=oOOOOOO$#*        ;37955555555555555",
"555555555555555643;        *=oOOOO$#*        ;379555555555555555",
"5555555555555555643;        *=oOO$#*        ;3795555555555555555",
"55555555555555555643;        *0$qw*        ;37955555555555555555",
"555555555555555555643;        *ert        ;379555555555555555555",
"5555555555555555555643;        yy        ;3785555555555555555555",
"55555555555555555555643;                ;37955555555555555555555",
"555555555555555555555643;              ;379555555555555555555555",
"5555555555555555555555643;            ;3795555555555555555555555",
"55555555555555555555555643;          ;37955555555555555555555555",
"555555555555555555555555uip          as6555555555555555555555555",
"555555555555555555555555uip          as6555555555555555555555555",
"55555555555555555555555643;          ;37955555555555555555555555",
"5555555555555555555555643;            ;3795555555555555555555555",
"555555555555555555555643;              ;379555555555555555555555",
"55555555555555555555643;                ;37955555555555555555555",
"5555555555555555555643;        yy        ;3785555555555555555555",
"555555555555555555643;        *ert        ;379555555555555555555",
"55555555555555555643;        *0$qw*        ;37955555555555555555",
"5555555555555555643;        *=oOO$#*        ;3795555555555555555",
"555555555555555643;        *=oOOOO$#*        ;379555555555555555",
"55555555555555643;        *=oOOOOOO$#*        ;37955555555555555",
"5555555555555643;        *=oOOOOOOOO$#*        ;3795555555555555",
"555555555555643;        *=oOOOOOOOOOO$#*        ;379555555555555",
"55555555555643;        *=oOOOOOOOOOOOO$#*        ;37955555555555",
"5555555555643;        *=oOOOOOOOOOOOOOO$#*        ;3795555555555",
"555555555643;        *=oOOOOOOOOOOOOOOOO$#*        ;379555555555",
"55555555643;        *=oOOOOOOOOOOOOOOOOOO$#*        ;37955555555",
"5555555643;        *=oOOOOOOOOOOOOOOOOOOOO$#*        ;3795555555",
"555555643;        *=oOOOOOOOOOOOOOOOOOOOOOO$#*        ;379555555",
"55555643;        *=oOOOOOOOOOOOOOOOOOOOOOOOO$#*        ;37955555",
"5555643;        *=oOOOOOOOOOOOOOOOOOOOOOOOOOO$#*        ;3795555",
"555643;        *=oOOOOOOOOOOOOOOOOOOOOOOOOOOOO$#*        ;379555",
"55643;        *=oOOOOOOOOOOOOOOOOOOOOOOOOOOOOOO$#*        ;37955",
"5643;        *=oOOOOOOOOOOOOOOOOOOOOOOOOOOOOOOOO$#*        ;3785",
"123;        *=oOOOOOOOOOOOOOOOOOOOOOOOOOOOOOOOOOO$#*        ;341",
">,;        *=oOOOOOOOOOOOOOOOOOOOOOOOOOOOOOOOOOOOO$#*        ;,<",
"-;        *=oOOOOOOOOOOOOOOOOOOOOOOOOOOOOOOOOOOOOOO$#*        ;:",
"         *=oOOOOOOOOOOOOOOOOOOOOOOOOOOOOOOOOOOOOOOOO$#*         ",
"        *=oOOOOOOOOOOOOOOOOOOOOOOOOOOOOOOOOOOOOOOOOOO$#*        ",
"       *=oOOOOOOOOOOOOOOOOOOOOOOOOOOOOOOOOOOOOOOOOOOOO$#*       ",
"      @#oOOOOOOOOOOOOOOOOOOOOOOOOOOOOOOOOOOOOOOOOOOOOOO$%&      ",
"     .XoOOOOOOOOOOOOOOOOOOOOOOOOOOOOOOOOOOOOOOOOOOOOOOOOo+.     "
};
