/* XPM */
static char *_258b73c6fc9487d8d685b8836980a4aK18niBt7KUybEM0E[] = {
/* columns rows colors chars-per-pixel */
"64 64 247 2 ",
"   c #030202",
".  c #0C0300",
"X  c #0B0A07",
"o  c #140200",
"O  c #130B03",
"+  c #1B0D02",
"@  c #120D0A",
"#  c #190702",
"$  c #15120D",
"%  c #1B140C",
"&  c #1A1508",
"*  c #0A0D13",
"=  c #0C131A",
"-  c #151413",
";  c #1B1613",
":  c #1B1917",
">  c #1C1B1A",
",  c #171719",
"<  c #120E11",
"1  c #250B01",
"2  c #22140C",
"3  c #271507",
"4  c #331809",
"5  c #231C14",
"6  c #2A1D14",
"7  c #221E1B",
"8  c #231812",
"9  c #331E14",
"0  c #1E211C",
"q  c #3C210C",
"w  c #2B2116",
"e  c #23221E",
"r  c #2B231D",
"t  c #32251C",
"y  c #382719",
"u  c #1D1D23",
"i  c #1B1C29",
"p  c #141927",
"a  c #161D34",
"s  c #0F162B",
"d  c #231E22",
"f  c #201E2C",
"g  c #1E2222",
"h  c #1D242D",
"j  c #17232D",
"k  c #1C2433",
"l  c #1B233B",
"z  c #182435",
"x  c #222322",
"c  c #2A2522",
"v  c #2C2924",
"b  c #21252A",
"n  c #282A28",
"m  c #342B24",
"M  c #3C2D24",
"N  c #362B26",
"B  c #3C342C",
"V  c #3A3227",
"C  c #252A33",
"Z  c #22263B",
"A  c #242B3C",
"S  c #292C3D",
"D  c #272734",
"F  c #383635",
"G  c #2D323E",
"H  c #442B1A",
"J  c #56321B",
"K  c #532D19",
"L  c #473629",
"P  c #553828",
"I  c #443B32",
"U  c #483B35",
"Y  c #513A31",
"T  c #673925",
"R  c #451C0A",
"E  c #38433F",
"W  c #4C433B",
"Q  c #494037",
"!  c #53443C",
"~  c #5B4737",
"^  c #55462F",
"/  c #68422D",
"(  c #684A37",
")  c #754C38",
"_  c #66513B",
"`  c #79523D",
"'  c #70432C",
"]  c #242C43",
"[  c #2B2E43",
"{  c #262E49",
"}  c #2C3244",
"|  c #2C344C",
" . c #29354C",
".. c #31344A",
"X. c #333A4D",
"o. c #353847",
"O. c #2C3652",
"+. c #2E3953",
"@. c #313553",
"#. c #333B55",
"$. c #343D5A",
"%. c #383E5B",
"&. c #363A56",
"*. c #1F2640",
"=. c #36415C",
"-. c #39425E",
";. c #3A4254",
":. c #3B4562",
">. c #3D4865",
",. c #3E4969",
"<. c #364263",
"1. c #4B4542",
"2. c #5B4C43",
"3. c #544A42",
"4. c #5A524B",
"5. c #4C505A",
"6. c #6A4E43",
"7. c #63544B",
"8. c #69554A",
"9. c #785949",
"0. c #685C52",
"q. c #755C56",
"w. c #714E42",
"e. c #79634C",
"r. c #6C635A",
"t. c #786459",
"y. c #414A63",
"u. c #414B6C",
"i. c #404761",
"p. c #434E71",
"a. c #455174",
"s. c #515567",
"d. c #7A6B63",
"f. c #7A7268",
"g. c #6B6C74",
"h. c #845C4A",
"j. c #865A46",
"k. c #8C5447",
"l. c #89624D",
"z. c #91624D",
"x. c #896856",
"c. c #956A55",
"v. c #936D5B",
"b. c #986A56",
"n. c #8B735B",
"m. c #9C715B",
"M. c #93745D",
"N. c #A2745D",
"B. c #A8715D",
"V. c #856E63",
"C. c #87766A",
"Z. c #9C7462",
"A. c #987866",
"S. c #8A7D74",
"D. c #927C74",
"F. c #A37662",
"G. c #A47A64",
"H. c #AA7D66",
"J. c #A47D6A",
"K. c #AA7E6A",
"L. c #A0766A",
"P. c #8C8076",
"I. c #9A8577",
"U. c #9E826D",
"Y. c #AC826C",
"T. c #A4816D",
"R. c #B1836D",
"E. c #B7866E",
"W. c #AD8D7B",
"Q. c #A98875",
"!. c #B58B75",
"~. c #B68B77",
"^. c #BA927C",
"/. c #A8927B",
"(. c #C4947D",
"). c #C6987B",
"_. c #C48B7D",
"`. c #777781",
"'. c #968B86",
"]. c #909092",
"[. c #A99186",
"{. c #B89887",
"}. c #A89E9A",
"|. c #BA9E92",
" X c #BEA18E",
".X c #B7A699",
"XX c #A9A19C",
"oX c #A8A7A9",
"OX c #B7ACA9",
"+X c #BCB8B5",
"@X c #B4AEAC",
"#X c #CB9D8A",
"$X c #C69986",
"%X c #CE9789",
"&X c #CBA38B",
"*X c #C6A38B",
"=X c #D3A48A",
"-X c #D6A78A",
";X c #CBA593",
":X c #C7A795",
">X c #D3A993",
",X c #D7AC97",
"<X c #CCB49B",
"1X c #DCB39B",
"2X c #D9B299",
"3X c #E4B59C",
"4X c #E7B99B",
"5X c #F1BE9F",
"6X c #C6ADA2",
"7X c #C9B5A9",
"8X c #D4B4A2",
"9X c #DAB9A7",
"0X c #CFBDB5",
"qX c #EBBDA3",
"wX c #E7BBA6",
"eX c #F2BAA9",
"rX c #D7C4B9",
"tX c #ECC1A4",
"yX c #ECC4AB",
"uX c #E9C5AD",
"iX c #F3CAAE",
"pX c #F3C4AA",
"aX c #EEC9B4",
"sX c #F3CCB2",
"dX c #FACEB4",
"fX c #FBD3B5",
"gX c #FBD5BC",
"hX c #F6D4BA",
"jX c #EDD3B8",
"kX c #EDC09F",
"lX c #BCBCC7",
"zX c #D6CCC8",
"xX c #D5D1CD",
"cX c #CCCBCE",
"vX c #FEDCC4",
"bX c #F9DCC8",
"nX c #E3DAD6",
"mX c #E8D4CC",
"MX c #FFE3CB",
"NX c #EDE3DA",
"BX c #E9E7E7",
"VX c #F3ECE7",
"CX c #F6F1EC",
"ZX c #ECEDF3",
"AX c #F6F6F8",
"SX c #F1F1F3",
"DX c #D7DFE5",
/* pixels */
": : : : : : : : : : : : : : : : , : , : > : > , > , > : : > - - : 7 ; - x > @ > e - ; e - : - > : : : : : : : : : : : : : : : : ",
": : : : : : : : : : : : : : : : x X d d - - : , - 7 @ : ; $ v v : ; 7 : @ - 7 : - : : ; - e : - : : : : : : : : : : : : : : : : ",
": : : : : : : : : : : : : : : : : e $ $ r ; r ; N 5 8 ; N 1.m 5 v v 7 : 5 7 7 $ : 7 7 ; ; - > : : : : : : : : : : : : : : : : : ",
": : : : : : : : : : : : : : : : : ; r % r % ; 4.3.W 7.L W f.2.W 4.4.I m 7 @ ; r : 7 : ; r ; 7 , : : : : : : : : : : : : : : : : ",
": : : : : : : : : : : : : : : : ; 5 % 8 r M 0.0.2.0.0.! 2.d.C.t.t.! ! 4.m @ % O O 5 r ; 7 $ : : : : : : : : : : : : : : : : : : ",
": : : : : : : : : : : : : : : : e % 5 r 2.P.V.t.V.t.t.t.I.[.D.t.L t I 2.! I m B I 7 $ $ v r ; e : : : : : : : : : : : : : : : : ",
": : : : : : : : : : : : : : : : ; 8 8 0.C.t.0.D.V.8.V.D.I.I.t.t.d.C.C.8.8.8.3.f.r.m . % W 4.5 @ : : : : : : : : : : : : : : : : ",
": : : : : : : : : : : : : : : : ; % m 0.! 0.t.V.V.t.8.t.V.V.D.C.8.Y ^ M ~ C.0.2.t I 3.m I r.c $ : : : : : : : : : : : : : : : : ",
": : : : : : : : : : : : : : : : - > Q m W 2.0.d.8.~ 8.d.2.7.L 9 t.y 1 o L S.'.S.Q V r ! r.0.1.v x c : : e 7 : : : : : : : : : : ",
": : : : : : : : : : : : : > : : > 0 F e B B I ! 2.8.7.2.M t M d.I.L   L S.P.I.C.r.I w 5 m B I W U F > , > > : > : : : : : : : : ",
": : : : : : : : : : : : > > > > > x N $ r r M 2.7.8.U M % m 3.r.7.M 6 f.C.f.'.P.4.6 % 8 r 5 O % Q F v : : : : > : : : : : : : : ",
": : : : : : : : : : : : > > > > > x c @ 7 2 2 t ! 7.I t O r W Q I m U 0.3.r.d.4.W 0.0.m 5 B r O 7 F F x : : > ; > : : : : : : : ",
"> > > > > > > > > > > > > : : > g > - X 7 r m L U 7.m 2 % O % m m 5 8 O w 8 O r P.'.P.7.U U Q r @ e n n > : > : > : : : : > > > ",
"> > > > > > > > > > > > > > > > 0 0 > $ 2 r L 2.M M + o + 5 7 7 F m % O %   . m m 3.I V W r.t.B ; @ , c e : : e > > > > : : > > ",
"> > > > > > > > > > > > > > > > : > c c 2 6 L ! L 6 6 2 2 B 1.B 1.v @ $ @   % . O O O w m V I I : @ - x > : > 7 > > > > > > : > ",
": : : > > : : : > > > > > > > > e - @ 6 M q.[..XQ.8.Y y L I M B v r O % % & .   .   # 2 r m 5 e @ $ > x : > e , > > > > > > > > ",
": : > > > > > > x - 7 x > > > > > , . 6 C. X,XuX9X9X;XT.9.P L Y L y 3 + M + . # o o o 1 6 ; @     : > : > > > : > > > : > > > > ",
"> > > > 0 > > > : d d > : > 0 x 0 : 5 L A.9X3XqXtXpXsXhXaX9X XW.Q.A.e.~ e._ ~ ( 6.P 4 1 #     X X > x > > g > > > > > > > > > > ",
"> > > 0 0 0 0 7 , c d > x e 0 0 > ; M L U.1X4XtXiXiXsXhXvXMXbXbXaXuX8X X<X<X8X<X1X$XQ.x.~ t % $ @ > x 0 > 0 > 0 0 0 > > > > > > ",
"> > > 0 0 0 0 > d d > x c > e e > % t L W.>XqXtXqXtXiXsXsXjXvXvXhXhXhXuXjXjXhXuXyXwXwX8X|.C.Q 5 @ > x > > > > 0 0 0 > > > > > > ",
"> > 0 0 0 0 0 > x u d c : > v r ; & 3 _ *X1XtX5XtXtXiXgXvXvXhXsXgXfXgXhXhXsXhXyXyX3X2X>X8X X7.+ $ > e 0 > > > 0 0 0 > > > > > > ",
"> > 0 0 0 0 > > x > c x 7 c 5 % O + L W.2X4X3XkXpXtXtXyXhXgXgXgXdXpXiXsXsXiXsXsXiXqXwX>X>X X_ o ; e e 7 e e > g 0 0 > > > > > > ",
"0 0 > 0 0 0 > > x > x 7 c c 8 Q w # t.<X&X2X2X5XqXtXyXyXaXsXhXfXgXgXfXfXfXfXfXfX3XwXpX1X2X*X( + 5 r e e x x 0 g g g u > > > > > ",
"g 0 0 0 7 7 e 7 x > n : 7 % t .X8.o U.:X&X,XtX3XqXwXyXaXsXsXyXyXtXpXiXsXfXfXyXtXpX3X3X>X2X;X( # 6 r 7 > x x > g g g x u > > > 7 ",
"g 0 e e r e e e g x > r 7 8 2.V.I.4 W.*X*X$X(.!.!.!.!.K.^.&XwX3X3XtX3X3XyXyXiXiXiXqXyX2X;X;Xx.# w % v x e > x x g g x 0 0 > e e ",
"g e e e r r x x g x e e r w x.I.V.H |.{.^.R.R.~.!.Y.v.) ( z.^.>X>X1X1X,X$XH.m.m.!.~.>X*X>X$X) x.r.r : : r x x x g g x e 7 7 e e ",
"g x x e r r x x x g 0 e w y {.:Xw.P ;X$X^.b.) ' ` J J / 9.z.z.N.$X&X^.F.z.) ` j.Z.Y.R.J.Q.$X9.{.C.e 7 e r x > x x x x d d x e e ",
"g x e r r r x x g 0 0 0 6 y :X9Xv.9.#X&X,X(.N.` ^.v.c.m.z.h.k.H.yX1XT.j.h.j.) P ` ` x.K.x.^.x.9.t.8 m r : x > x x x x d d x e e ",
"g x r r r r x x g g x e w w |.,XT.` ~.&X3X3X=XY.F.F.~.~.R.(.(.3XMXvX&XH.F.N.c.j.Y.z.K ` ~.#Xj.T.d.5 x 7 : c > 7 x x x d e x x x ",
"g g r r r r x x x x 0 e w 4 W.wXK.) (.1X3X4X4X&X!.K.!.$X=XwX4XpXvXvXwX>X$XR.R.~.K.z.F.#X2X^.z.9Xt.2 7 r c c > x x x x u e x x x ",
"g g e r x x x x x n 0 e w 4 A.aXm.T E.).=X3X5XtXiXtXsXfXdX3X3XpXMXhX1X1XwX#XR.m.m.G.*X,X3XH.b.9X! % r c c r 7 x x x x u e e x x ",
"g g e r r x x x 0 x 0 v t 3 9.8XA./ R.(.-XqX4XtXpXsXdXqX3X=X3XqXvXgX1X,XwXqX3X,X,X3X3X,X=Xj.H.;XL e r 7 r x n e x x x g x e d u ",
"e e e e e e e e e 0 e c r r r y y ~ M.Y.(.-X,XpXqXwXeX%X%XpXwXyXbXgXwX&X1XqXpX5X4X3X1X&X{./ {.9Xr x e e e e x x g g x x g u u u ",
"0 0 x e x e e e x e e c x e c v & _ l.Z.H.E.=X(.=X%X~._.%X(.^.$X1X>X>XwX3X3X5X5X5X4X=X$XT./ 8X.Xr e e e e e x x x x x x x x u u ",
"x e x x x x x x c x x c x e x v 8 L x.m.b.B.R.E.H.R.#XeX~.K K n.Q.v.) H.,X3X-X-X3X-X>X^.l.H 6.M e e e e e e e e x x x x x x x x ",
"x x x x x x c x x x x x x x x r 6 9 x.L.z.z.F.H.m.m.!.K.z.T q P ) R K ^.1X#X=X-X&X^.Q.A.~ 4 1 & 7 e e e e e e e x x x e e e e e ",
"x x x x x x x x x x x x x x x e r 9 w.L.b.h.^.G.J ) v.G.R.!.x.` J / ` m.$X~.~.$XY.Q.9.t.L 6 r m 7 e e e r r r e e e e e e e e e ",
"x x x x x x x x x x x x x c x e r 2 Y x.Z.x.Y.W.x.J.x.j.` ) c.Z.Z.Z.F.j.z.Y.$XF.A.A.t.0.6 r 7 : e e x r x r r r e e e e e e e e ",
"x x x x x x x x e x x e e c x e $ e W L 9.9.9.Q.{.8X#X$X%X$X$XN.c.j.j.` ` ) / l.A.9.t.M @ v > b g x x x x x x x e e e e e e e e ",
"x x x x x e e x x x e e e c x 0   f.r.3 ~ _ e.n.:X:X;X#X%X$X_.#X,X#X>X#X!.^.v.Z.6.8.U . : > u C x x x x x x x x x x r e e e e e ",
"e e e e e x e x e e e e c c > * ;.+XB 7.y H ^ 9./.<X;XK.b.k.T T ' j.Z.~.*X;XA.~ Y t O   * = k k b b b g u x b x x x x x x g > 0 ",
"e e e e e e e e x x x x x 0 , X ].cXN C.~ 9 4 L n.*X9X,X;X$XR.^.K.A.~.^.;XQ.~ Y 3 8 ;   = p j z b C C b b b b b b g g g x b b b ",
"e e e e e e e x c x x g g > = * g.xXI D.V.P 3 4 ^ x.W.:X9X9X<X:X>X,X>X#XW.A.H 1 + N : * p j z z Z S } } } G S S C C b h i i i i ",
"e e e e x x c x x b b g g p p = D nXd.q.W.9.P 1 1 H ( x.A.A.I.I.|.#X#XW.( 4 3 2 ! 3.X u p a ] z A } X.X.X.#.#.#.;.;.X...} [ A A ",
"c c c x c x b b b h k h j p p p > +XOXY A.Z.h.P 1 1 1 4 q H ^ ^ ( / ( q 1 o L Y '.F   p i a ] ] ] | | #.#.;.-.-.i.i.i.i.i.:.-.-.",
"x x x x x b b h C C Z Z k a i i * r.NXq.w.Z.A.x.( H 4 1 1 3 3 + # 3 1 # H 9.0.D.}.< u = A l l { {  .+.+.#.$.-.:.<.:.>.u.u.u.u.u.",
"g g x b n C C S } } [ ] Z a a a = n nX6Xw.9.n.n.A.n.h.( P P P ^ L P P t.x.V.q.zXS.X D p [ Z l { { O.$.$.$.=.<.:.,.,.u.p.p.a.p.a.",
"h h C S G o.X.X...} | { ] l a z j X }.NXD.( l.M.Z.Z.Z.Z.J.J.A.A.A.n.A.A.D.6.'.BX1.< i D S Z ] | { O.$.$.$.<.<.<.,.,.,.,.p.a.a.a.",
"| O.#.%.%.#.#.#.#.| ] | } l l j j = 1.CXrX_ ` x.c.N.F.N.H.H.J.J.F.H.v.x.8.d.VXcXD f i S ..[ S } | +.#.$.$.=.<.<.,.,.,.,.u.p.p.a.",
"$.<.<.<.$.$.#.#.#. .] | | ] A z k j * oXAX[.w.h.c.b.b.B.H.H.F.F.N.N.c.9.7.nXBXoXp Z [ [ [ S } %.{ O.#.=.-.:.>.>.>.>.,.,.u.u.p.a.",
":.:.:.<.$.$.$.$.#.| ] | | ] ] l j h * 4.AXmXx.) j.z.b.b.m.F.H.H.m.z.h.6.7XCXSX`.p A ........[ Z ] | #.=.-.-.:.>.:.>.>.,.,.u.p.p.",
":.:.<.=.$.$.$.$.#.#.| | | ] ] A A C = d XX.XrXn.9.j.z.m.N.N.N.b.b.h.` {.NXnXSXs.z ] } | %.#.A s | O.$.=.=.$.<.<.:.:.>.,.,.u.u.u.",
":.:.<.<.-.=.$.$.#.#.| O.X.| } A Z S h   f.}..XrX{.v.9.z.b.b.b.m.c.l.W.mX7XxXxXo.Z } | | O.O. .O.#.=.-.-.-.-.<.:.:.:.:.,.,.,.,.u.",
">.:.:.:.:.<.=.$.$.#.{ | #.#.| A A k h , F }..X6XrX XT.l.j.c.G.N.m.Y.jXrX@X@X].k ] | O.#.$. .O.=.=.=.-.-.<.:.:.>.:.:.>.,.,.,.,.,.",
">.>.:.:.:.:.-.=.=.$.{ { | | #.| X.Z S =   ].}..X.X7X8X{.v.G.R.m.m.{.mXrXrXcXg.z } | O.$.-.$.O.O.$.$.$.=.<.:.:.:.:.:.>.>.>.>.,.,.",
">.:.:.:.:.:.:.-.-.-.| ] l l | %.| { Z A * s.@X}..X.X7X6XW.J.~.^.K.M.bXNXnXAX].k | #.#.+.$.$.+.=.$.$.$.-.:.>.:.-.:.:.>.>.>.>.,.,.",
":.:.:.:.<.-.-.-.$.:.#.%.#.-.#.#.#.| | A i G oXoX@XOX7XrX6X{.Q.{.!.x.9.7XAXSX5.S #.O.@.$.$.-.-.$.$.$.$.-.:.:.:.:.:.:.:.>.>.>.>.>.",
":.:.:.:.:.<.-.-.=.:.%.#.s.#.-.%.&.#.| [ S S oXcX+X+X0XrXrX6X|.{.{.Q.8.7XzXlXo.A @.@.&.%.$.-.-.=.$.=.<.:.:.:.:.<.:.:.:.>.>.>.>.:.",
":.:.:.:.:.<.-.-.#.y.] -.y.-.%.-.$.-.| | X.k ].BXxXxXzXrXrXrX7X:X.X[.6X0XxXoXC X...@.&.%.&.%.:.:.$.=.:.>.>.:.<.-.>.>.>.:.:.:.:.:.",
":.:.:.:.:.<.-.-.#.:.*.| -.:.#.$.$.-.| X.X.k g.AXBXBXnXxXzXzXzXrX.X.XmXxXnXg.S | @.@.&.%.&.-.:.-.#.$.:.:.:.<.<.:.>.>.:.:.:.=.=.=.",
"=.=.=.-.-.-.:.:.:.+.$.s -.-.-.#.#.$.| #.| } i.ZXBXZXZXBXnXnXmXnXrXrXzXxXcXg.Z #.@.O.@.&.&.-.-.#.O.#.$.-.=.-.:.>.:.:.-.=.=.$.$.$.",
"=.=.=.=.=.-.:.:.y.#.-.a | -.%.#.+.O.O.#.| #.} lXAXSXZXSXCXBXVXVXVXzXNXxXDXg.A O.#.O.O.#.$.-.$.{  .O.+.#.#.$.-.:.=.=.$.#.+.+.+.+.",
"$.$.#.#.$.=.-.:.:.-.$.O.a $.O.#.O.O. .| | #.[ ].AXAXZXZXSXAXAXCXnXNXBXBXAXi.X.] O.O.O.#.$.=.O.*. .O.O.O.O.#.$.$.$.#.O.O.O.O.O.O.",
"$.#.+.O.+.#.=.=.-.:.:.-.l { #.#.+.O.| ] | } } s.AXSXSXSXSXAXSXBXBXVXAXSXDX;.l =.O.O.#.#.$.=. .l  .| | O.O.O.O.O.+.O.O. . . . .O."
};
