/* XPM */
static char *c8d57e5f093a4ed8899f35e48b6ad5a71pSsfiEztPZG5D7i[] = {
/* columns rows colors chars-per-pixel */
"64 64 247 2 ",
"   c #1C0C04",
".  c #1B0D0C",
"X  c #160805",
"o  c #1D110C",
"O  c #1C1004",
"+  c #1C1111",
"@  c #140708",
"#  c #220E04",
"$  c #251104",
"%  c #23140C",
"&  c #2D1A0D",
"*  c #2A1509",
"=  c #231514",
"-  c #261915",
";  c #2B1C14",
":  c #2A1C1A",
">  c #251A1B",
",  c #321E13",
"<  c #3A1F14",
"1  c #301B0A",
"2  c #362213",
"3  c #33231C",
"4  c #3B2819",
"5  c #302013",
"6  c #1C1929",
"7  c #3C2B23",
"8  c #372C29",
"9  c #3E312A",
"0  c #3C3232",
"q  c #3D333B",
"w  c #2F282D",
"e  c #2A1E20",
"r  c #422B1C",
"t  c #41281B",
"y  c #46341D",
"u  c #422D24",
"i  c #443224",
"p  c #4C3423",
"a  c #4C3B2C",
"s  c #47362B",
"d  c #543C2C",
"f  c #433534",
"g  c #4B3C33",
"h  c #463B3A",
"j  c #463939",
"k  c #543F32",
"l  c #56442D",
"z  c #4C4339",
"x  c #544333",
"c  c #5B4534",
"v  c #5C4934",
"b  c #51433C",
"n  c #5C4B3C",
"m  c #564A3C",
"M  c #5C523D",
"N  c #624C3C",
"B  c #624A37",
"V  c #64523D",
"C  c #6B553D",
"Z  c #66563B",
"A  c #353147",
"S  c #453D47",
"D  c #4D4343",
"F  c #4A4449",
"G  c #514644",
"H  c #534B45",
"J  c #5B4C43",
"K  c #564C4A",
"L  c #5E5448",
"P  c #5C5756",
"I  c #564F5D",
"U  c #664D42",
"Y  c #645343",
"T  c #6B5543",
"R  c #6C5A44",
"E  c #64534A",
"W  c #6B564A",
"Q  c #6C5B4C",
"!  c #655C49",
"~  c #725D44",
"^  c #735C4C",
"/  c #725748",
"(  c #645B55",
")  c #6B5C54",
"_  c #665A57",
"`  c #745D53",
"'  c #6D604C",
"]  c #746145",
"[  c #74634C",
"{  c #7B654C",
"}  c #7C6A4D",
"|  c #796648",
" . c #6D6253",
".. c #6B645A",
"X. c #736354",
"o. c #7B6454",
"O. c #766C54",
"+. c #7C6B54",
"@. c #73635B",
"#. c #7C655C",
"$. c #756B5C",
"%. c #7C6C5B",
"&. c #7C7255",
"*. c #7C725C",
"=. c #7F714E",
"-. c #5A596A",
";. c #625E6B",
":. c #6D6664",
">. c #746A63",
",. c #7B6C63",
"<. c #786965",
"1. c #7D7264",
"2. c #7C746B",
"3. c #7E7A6C",
"4. c #787566",
"5. c #696776",
"6. c #7B7472",
"7. c #7C7878",
"8. c #816A4E",
"9. c #836C54",
"0. c #816D5B",
"q. c #846B55",
"w. c #837256",
"e. c #8B7356",
"r. c #83735C",
"t. c #8B745B",
"y. c #85795C",
"u. c #8B7A5D",
"i. c #827855",
"p. c #907759",
"a. c #836D65",
"s. c #866F6A",
"d. c #837463",
"f. c #897564",
"g. c #857A65",
"h. c #8B7C64",
"j. c #83756A",
"k. c #847B6B",
"l. c #8B7C6B",
"z. c #8D756A",
"x. c #917D6C",
"c. c #917D63",
"v. c #847C73",
"b. c #8A7D73",
"n. c #827E79",
"m. c #827773",
"M. c #937D72",
"N. c #86806C",
"B. c #8D8169",
"V. c #93836C",
"C. c #948568",
"Z. c #898373",
"A. c #8B847B",
"S. c #868278",
"D. c #948474",
"F. c #998674",
"G. c #9B8A74",
"H. c #95897B",
"J. c #9B8B7B",
"K. c #94867C",
"L. c #94917F",
"P. c #A08E7A",
"I. c #A18F77",
"U. c #A4917D",
"Y. c #73738F",
"T. c #797DA0",
"R. c #827E92",
"E. c #8C8583",
"W. c #8B8789",
"Q. c #8C8888",
"!. c #958C85",
"~. c #9D9386",
"^. c #9C938B",
"/. c #99958C",
"(. c #9A9797",
"). c #8A8797",
"_. c #A18D83",
"`. c #A39383",
"'. c #A3968A",
"]. c #A49A8C",
"[. c #AA9988",
"{. c #A39D93",
"}. c #AB9F94",
"|. c #A49C9B",
" X c #AA9E9D",
".X c #A29698",
"XX c #ABA294",
"oX c #AAA59B",
"OX c #B2A395",
"+X c #B4AC9C",
"@X c #BAAD9C",
"#X c #B3A69A",
"$X c #BBB29E",
"%X c #B7B29F",
"&X c #ABA28E",
"*X c #8586A6",
"=X c #8F91A7",
"-X c #9897A7",
";X c #8C8FB2",
":X c #A69DA3",
">X c #ACA3A2",
",X c #ACA6AA",
"<X c #ACA7A8",
"1X c #B3ADA4",
"2X c #BAAEA3",
"3X c #B2ADAB",
"4X c #B2A8A6",
"5X c #B5B2A5",
"6X c #BCB4A3",
"7X c #B6B3AB",
"8X c #BAB5AB",
"9X c #BBB9AD",
"0X c #BDB8A7",
"qX c #B3ADB1",
"wX c #B8AFB0",
"eX c #B6B2B3",
"rX c #BAB5B4",
"tX c #BDBAB3",
"yX c #BAB5B8",
"uX c #BEBABA",
"iX c #B7B8B2",
"pX c #AFA9B1",
"aX c #C4B5A4",
"sX c #C8B6A6",
"dX c #C2B9A6",
"fX c #CBBAA7",
"gX c #C3B6A9",
"hX c #C4BBAB",
"jX c #CABEAD",
"kX c #CBBCAC",
"lX c #C8B7AA",
"zX c #C3BDB4",
"xX c #CABEB5",
"cX c #CABEB2",
"vX c #C1BDBA",
"bX c #C9BEBA",
"nX c #C4B7B1",
"mX c #D0BFB0",
"MX c #CCC0AE",
"NX c #C4C1AF",
"BX c #D1C1AE",
"VX c #C4C2B4",
"CX c #CCC2B3",
"ZX c #C5C1BB",
"AX c #CAC3BA",
"SX c #D1C4B4",
"DX c #C1BFC0",
/* pixels */
"5X5X5X6X6X6X6X6X6X6X6X6X6X6X5X6X6X6X6X6X0XdXdXdXjXdXgXhXnXnXnXnXbX|.!.2X2X6XAXjXjXhXhXjXkXkXjXkXMXMXjXMXjXhXhXcXxXxXxXxXxXxXbXbX",
"5X5X5X5X6X6X6X6X6X6X6X6X6X6X6X6X%X6X6XdX0X0X0XdX6XjXAXxXnXnXnX8XwX!.2.~.}.2XhXhXjXhXhXkXkXkXkXCXjXjXjXjXjXhXhXhXxXxXxXxXxXxXxXxX",
"5X5X5X5X6X6X6X6X6X6X6X6X6X6X6X6X6X6X6X6XhXhXdX6XdX0X6X8X8X2X}.^.!.6.( :.v.{.6XjXMXkXhXkXkXkXkXjXkXkXkXjXkXfXfXlXcXcXxXxXxXxXxXxX",
"5X5X6X6X6X6X6X6X6X6X6X6X6X6X6X6X6X6X6X6X6XdX6X6XdX5X8XxX8X!.) H P _ D D ..'.2XgXhXgXhXjXBXMXkXkXkXkXjXMXmXkXfXjXjXcXcXxXxXxXxXxX",
"%X6X6X6X6X6X6X6X6X6X6X6X6X6X6X6X6X6XaX6X6X6X6XdXhX6XhX0X'...h 0 0 j 8 0 P v.!.].6XaXdXfXkXmXBXMXMXkXkXMXmXkXfXfXsXjXkXcXcXxXxXxX",
"%X6X6X6X6X6X6X6X6X6X6X6X6X6X6X6X6X6X@X6XdXhX6X@XXX}.~.b.>..._ ( K F D D G L ..^.hXhXfXsXaXsXfXfXkXfXkXkXkXfXsXsXsXfXkXcXcXcXcXcX",
"%X$X6X6X6X%X6X6X6X6X6X6X6X6X$X6X6X%X+X6X6X+X'.H.1.1.>.$.>.2.2.>.7.6.4.4._ _ >.].aXhXkXfXaXaXaXsXkXfXfXfXfXsXaXsXfXkXkXkXkXjXjXhX",
"$X$X6X%X@X%X6X6X6X6X6X6X6X$X$X$X+XaXjX6X'.k.X. .$.$.$.>.>.>.4.6.7.6.7.n.v.A.2.v.}.2XjXkXfXfXfXfXkXfXfXfXsXaXaXsXkXkXkXkXkXjXhXhX",
"$X$X%X%X%X%X6X6X6XdX6X@X6X6X%X$XhXOXJ.k.$.' X.%.$.$.$.$.>.1.2.2.7.7.7.n.n.S.v.v.j.!.#XgXmXsXaXkXkXBXaXfXmXsXfXkXfXBXmXkXCXkXhXjX",
"%X$X$X$X%X%X6X6X+X+X6X6X%X%X$X$X$XH.X.Q X.%.%.%.%.%.%.,.1.2.2.3.v.v.n.S.A.S.b.v.j.b.K.].sXBXfXsXaXsXfXfXfXfXsXsXfXkXkXkXMXjXhXCX",
"$X$XaX6X6X6X6X0X0X6XhXhX6XdXdX&XD.*.Q ' o.%.%.%.%.%.%.1.1.2.j.j.v.v.S.S.A.A.S.v.v.j.j.l.`.@XfXfX#X6X@X@X@X@XfXfXkXmXkXfXjXMXjXCX",
"@X$X6X6X6X6X0X0X0X6X2X+X6X6X[.d.[ [ o.%.%.o.o.%.%.%.%.1.1.2.2.3.3.k.S.S.A.S.v.v.b.k.k.d.1.D.}.OXH.}.'.OXOXOXmXaXkXmXkXfXMXMXjXMX",
"@X$X6X$X6X6X6X8X6X#X].XXhXXXd.' O.[ [ o.+.o.o.+.+.%.%.d.1.2.3.j.k.k.Z.Z.Z.Z.v.j.k.j.k.j.1.g.l.%.Y @.b.~.].OX@XOXaXjXjXfXjXjXjXjX",
"@X$X6X6X6X6X2X+XoX~.k.~.aXJ.Q O.+.[ [ { { o.o.+.0.0.0.r.d.j.j.j.k.N.N.Z.Z.Z.Z.k.k.j.j.j.1.d.%. .9 ; J Q @.K.b.'.#XaXgXgXjXjXhXhX",
"@X$X$X6X6X0X2XoXK...z L j.*.! X.[ [ } +.+.} 8.q.q.q.r.r.d.j.j.k.k.N.N.N.Z.Z.k.k.j.v.j.2.1.*.*.2.b o ; ; 7 J @.!.}.2XgXgXhXjXhXjX",
"@X6X%X6X0XgX2XoX2.b o O s  .X.R [ [ [ | { } 9.q.q.0.0.0.r.j.g.k.g.g.N.N.N.N.k.k.j.k.j.j.k.j.*.j.$.9 X O % 3 @.K. X8XhXhXhXhXhXjX",
"2X6X2X8X8X6XoXE.6.K > X J X.T R { [ [ | } 8.9.9.q.0.+.r.r.d.j.g.g.1.1.g.k.N.k.k.l.k.j.f.d.r.r.*.$.Q 3   : + f K <.}.8XgXdXdXhXdX",
"+X6X8X8X5X5X8X>X6.K : o J Q T [ [ ~ ~ ] | | | | } } +.r.r.r.d.1.*.&.*.*.g.k.l.l.l.k.f.f.d.r.0.+.h.%.x % . @ + : ) ~.2XjXjXhXNXhX",
"1X8X8X8X5XoX{.E.H : @ % b Y Y [ R R R ] | | | | ] ] [ +.+.o.o.O.O.O.O.*.*.g.k.l.l.l.g.g.d.r.+.+.r.%.Q 4 % . - : K b.XXdXjXdXdXdX",
"5X8X5X8X1X{.A._ h . X - g n Y R R R ~ [ | ] ] ] ~ ~ ~ ] [ [ [ [ O.O.+.+.&.*.d.g.l.l.f.g.r.r.w.&.+.[ %.a % = . = b ,.~.6XhX6XdX6X",
"1X5X5X7X1XXX/.6.H > = - u x Y Y T R R ~ ~ ~ ~ ~ ~ ~ ~ [ { } +.+.&.&.&.&.*.r.d.g.l.h.h.g.y.r.r.r.w.[ *.x %   X . 3 J j.XX6XhXMXNX",
"5X5X1X8X8X1X{.v.h + = = 3 g Y n T T T R R C C C R ~ [ +.w.r.r.r.w.w.i.r.y.g.l.l.l.h.h.g.y.r.r.i.&.[ +.n & % X ; J ,.'.aXNXhXhX%X",
"8X5X1X8X9X1X/.:.8 . = - 7 g Y T T T T T T C C C ~ ~ | 0.t.t.t.u.u.u.u.h.B.C.V.V.l.h.h.h.y.r.i.i.} | ] x & # X % f ) K.6XdXhXhX+X",
"5X8X8X8X1X{.E.:.8 + = = : i J Q ! T T T T C T ~ } } +.q.t.u.u.c.c.u.h.C.V.V.V.V.B.h.h.h.y.&.&.i.| | R l & %   % s @.].jXNXhXhX#X",
"8X9X8X9X9X5X{.2.0 + @ = : s E Q ! ! Q Q ^ ^ [ o.o.| } o.t.t.t.C.C.C.c.C.c.h.C.G.V.B.C.G.V.u.i.y.=.~ Z a &     ; E 1.!.6XdXhXSX&X",
"1X9X5X5X9X9X/.P e o . > : 9 J Q X.Q Q X.%.0.%.o.q.{ { ~ { o.{ q.w.w.w.i.f.r.r.f.l.B.V.V.B.u.y.i.} ] Z a ; $   % f $.~.dXdX0XCXXX",
"7XzX9X9X9X7X!.H w + . = : 9 E X.Q Q X.%.%.X.T N N v v c N T C ~ ] { { { +.o.[ o.o.d.l.B.V.V.C.i.} ] R a 2 %   % b A.+XCXNX0XNX].",
"7X8X7X9X5XXXA.( h e . . - s E X.Q  .X.X.Y a u r 4 4 t t p c v C C ~ R V T Y n Y n Y Q [ r.V.V.B.&.[ T a 3 % . : H K.XX6XjXNXCX/.",
"1X7X7X9X5XoX(.S.H 8 . . - 7 J ) $.X.Q n i 3 , 3 , & & * 2 r p v V R V c x a i i 4 4 4 i l R r.G.r.[ Y s : . . 8 v.4X8XhXVXVXNXL.",
"7XtX9X8X8X9X1XA.h e + + - 3 g ) $. .J g 7 4 3 4 , * $ # $ 1 4 c [ +.+.Y i , * $ # # * & 2 y Y f.d.%.Q f - @ + h >.{.oX9X9XVXVXL.",
"5X9X5X5X5X6XoXS.H 8 + + - - f ) ..! m g s 7 7 7 , $ # $ * * 2 c f.D.J.o.r $ #       * 2 2 2 p B %.d.) 7 . . > D v.{.1X9X9XNX9XS.",
"7X7X5X9X9X5X1X(.v.G - o - - s ) $.! m a 7 4 u a , $ & , 2 1 2 c D.J.[.d.4 $ & * * $ $ & 2 4 4 y ! %.Q 3 X @ e G 6.!.(.5X9XVXVX3.",
"5X5X5X7X9X8X8X2X#Xb.g - % - f ) @. .L x a k c N a 2 i x a 4 i W K.~.{.K.s ; i n ,   1 y 1 1 y y V d.E %   o 9 _ Q.3X9XtXzXzX5X3.",
"5X5X8X9X9X9X8X8X~.,.J b 7 ; j <.@.X.Q Y Y V N B V d c v d a x W A.^.XX~.L a x Y a 4 p c y r y a Q %.Q & X - H E.oXtXzXVXzXVX7X4.",
"5X5X9X9X9X9X8X8Xj.g x W x 7 k <.@.X.X.X.[ ^ T N c d c x c Y ^ X.b.^.{.!. .n k x c a c B v l V R r.f.X.% % b m.{.8XvXvXVX9XVX5X>.",
"5X7X9X9X9X9X0X0Xd.4 x X.Q n E ,.,.%.%.o.o.[ ~ R C C T T T o.0.%.b.].}.~.k. .n c n v v B C R +.h.F.F.Q ; 9 ) !.2XzXuXzXzX9XVX5X$.",
"9X9X7X9XrX9X8X6Xk.i T X.Q U Q d.f.f.d.r.+.+.+.+.9.9.9.q.q.0.0.%.k.^.}.'.!.j.X.X.^ [ R R } w.h.I.U.U.Y a J g A.AXAXtXzXZXtXZX1X>.",
"9X9X8X9XrX9X8X6Xl.x [ V N T T f.l.l.f.f.t.w.q.w.} } 8.t.e.o.0.0.Z.'.}.'.`.b.d.d.0.r.r.r.C.G.U.[.P.`.Y n ! a K.AXAXnXAXZXzXZXoX>.",
"8X9X9XtXrX9X8X6XJ.V [ v R { R r.f.f.d.r.t.t.w.e.e.e.e.c.q.{ t.f.`.].OX].[.D.l.l.f.l.x.V.I.[.[.`.P.J.Q Q X.) #XzXxXzXAXzXzXVXXX1.",
"7X9XtXtXtX9X8X0X~.' +.l R { B q.l.d.0.r.t.t.e.e.e.p.e.t.q.} x.F.J.K.'.'.'.D.D.F.U.J.P.P.U.[.U.F.P.z.o.d.f.j.gXAXxXxXAXzXVXAXXX3.",
"7X7XiXrXiX8X9X9X'.*.O.B V [ B ^ l.d.r.r.t.0.e.t.e.p.e.q.9.q.t.f.a.d.j.M.F.D.F.`.[.[.`.`.U.P.F.V.x.f.0.f.D.].2XxXnXAXzXAXzXAX/.S.",
"5X7XiXiXiX9X9X9X+Xk.O.R R [ B Q d.d.d.r.r.w.w.e.e.e.e.q.~ B d p T W Y n n Q f.D.P.`.`.U.G.F.V.f.x.o.0.D.~.XXhXAXnXAXzXZXzXAX/.A.",
"7X7X8XrXiXiX8X8X8X~.g.O.O.[ N n ,.1.d.0.%.0.9.8.8.| | { T d p p k k s 2 2 c %.l.D.J.`.J.F.D.l.f.x.^ 0.'.[.@XAXcXnXzXzXvXzXZX/.E.",
"7X7X8XrXtXtXtX9X9X+XL.g.$.@.X.E j.j.d.%.+.0.q.8.8.8.8.8.^ T T / c a a p k %.J.D.D.D.J.J.G.D.l.l.z.X.d.`.XX6XAXzXnXzXzXvXuXZX!.!.",
"7X7X8XrXtXtXiXiX9X9XXXA.1.@.<.@.m.j.j.%.0.r.t.9.| 8.q.q.^ / U N c a d N X.D.[.P.J.D.D.J.J.x.l.l.d.d.f.J.#XgXnXAXzXzXzXvXvXZXQ.(.",
"1X7X7XrXiXiXiXiXtX9X5XoXK...( ( m.2.,.,.d.r.t.9.| 8.q.} ^ / T U U B N ^ 0.D.'.`.`.D.D.D.J.l.f.d.%.l.l.H.2XhXhXAXzXzXvXvXvXZXQ.|.",
"1X7X8XrXiXiXiXiXiX7XtXzX>XA.<.<.E.m.<.%.,.r.0.9.9.} } o.o.o.o.#.o.` o.0.z.J.`.'.`.J.D.D.D.x.f.%.a.l.J.}.gXzXzXAXVXzXvXvXuXDXW.<X",
"1X7XrXtXtXiXtXtX8X7XtXzXzXzXeXyX|.E.4.>.,.d.r.r.+.~ R ~ ^ / U T / ^ ^ o.l.J.J.J.D.G.D.l.l.l.d.X.j.k.'.gXxXzXzXzXVXuXvXuXuXDXW.<X",
"1X3X7X9XrXtXtXtX8X7X8XrXvXvXvXzXoX!.2.>.>.1.j.%.o.T c p t 2 4 r t < t a n Q a.x.g.l.V.g.g.g.%.$.^.VXhXhXVX9XVXzXvXvXrXvXuXrXW.3X",
"3X7X7X9X9X9X9XtX9X9XrXtXuXuXuXzX7X^.2.$.>.,.1.1.X.W N B v d p p p t t u 4 u s x T +.h.B.*.*.1.$./.VXtXzXZXtXZXZXvXvXrXvXvXrXW.3X",
"1X7X7X8X8X9X9XtX9XtXuXtXrXrXuXzXzX|.m.>.>.>.>.,.) ) ` #.0.o.o.o.^ ` z.M.s.` Y n n R *.g.+.$.1...{.tXtXtXZXuXZXvXuXuXuXvXvXeXW.3X",
"1X7X7X7X7X8X9X9X9X9XtXrXrXrXuXvXZXoXv.>.<.>...@.) ` #.a.#.` ^ ` ` o.z.M.M.z.f.d.T Y [ O.$.$. .$.oXtX9XtXvXzXZXuXvXuXuXvXvXqXW.eX",
"1X3X7X7X7X7X8X8X9X9XrXrXrXuXuXuXvX|.6.:.<.>.:.@.) ) #.<.#.W U k c k k N U ` %.d.[ M ' ! $.$.L v.8XzXtXtXzXzXZXvXvXuXuXuXuX3XQ.rX",
"1X1X5X7X7X7X5X7XtX9XrX9XrXrXrXrXuX/.6.:.:.:.<.<.@.` ` <.s.a.#./ U N N W ` #.%.X.T m ! !  ...( (.tXtXtXtXuXuXvXuXuXrXuXrXuX<XQ.uX",
"1X1X1X5X5X5X5X1X8X9X9X8X7X7XrXrX4XE.6.2._ _ :.@.,.<.<.<.s.j.a.#.0.o.o.0.d.z.f.%.! M L ! L  .S.7XtX8XtXuXtXtXrXrXuXiXuXrXuX>XW.yX",
"4X1X1X5X5X1X1X1X1X7X8X7X3X7XrXuX(.n.n.n._ K _ ( ) @.,.s.a.a.a.a.0.0.x.J._._.D.j.O.! M ' H  .>XzXtX7XtXuXuXuXrXrXuXeXvXrXuX>XW.rX",
">X4X1X1X2X2X2X7X2X2XrX3XeXrX<XrXQ.S.E.n...H G K ( ) @.,.,.#.#.0.f.a.z.J._._.H.l.$.! ! m P (.8XuXuXrXeXrXrXuXuXrXrXrXrXrXuX:XW.eX",
"oX>X4X1X1X1X2X2X3X4X3X3XeXuXuX<X:.Q.).7.:.P D D K L ) @.@.` ` #.` ^ #.j.b.b.b.j...m L 4.(.vXtX7XuXrX7XrXrXuXrXrXrXrXrXrXyX(.W.eX",
"oX>X>X4X4X1X4X4X3X3X3X3X3XqXqX5.I -X(.7.7.P F D D G K L E E E W W Y W ) ) ) @.) z m A.1X9XrXeXuXrXrXeXiXrXrXrXrXeXrXrXrXyX(.Q.yX",
" XoX>X>X4X4X1X4X3X3X3XqX3XpXW.w -.-X=X).).;.F F h h h G G b b b J n J J b b G z z ( XX0X8X7XqXeXrXrXeXeXrXrXrXeXeXrXrXrXyX(.(.yX",
" X>X>X>X>X4X1X4X>X3X,XqXqXqXP 6 5.=X=X-X=X5.-.F q q 0 f j f f f g s f j f h h h z ..oX2X7XrXrXqXrXrXeXeXeXeXeXeXrXeXyXyXyX(.(.yX",
" X X>X>X>X>X>X4X>X3X<XqXpX-XS 6 Y.*X=X=X*X).Y.;.S q 0 0 0 0 0 0 9 7 9 f f h D z z ..2X8X7X4XeXyXeXeXeXeXeXeXeXeXrXqXeXeXyXQ.(.eX",
"|.|. X X X>X>X>X,X,X,XpX,X5.w 6 -.T.;X*XT.*X).R.;.I S q q q 0 0 0 8 0 f j h G D H ..1X8XyXwXeXqXeXeXeXeXeXeXeXeXeXqXqXqXeXW.(.qX",
".X|.|. X X X X>X,X>X,XqX:XS w 6 A Y.;X*X*X*XY.).R.5.I S j q q 0 0 8 8 0 j S G G H <.9X2X3X3XyXeXqXeXeXeXeXqXeXeXeX3X3X3XeXW.(.qX"
};
